<mxfile host="app.diagrams.net" agent="Mozilla/5.0 (Windows NT 10.0; Win64; x64) AppleWebKit/537.36 (KHTML, like Gecko) Chrome/138.0.0.0 Safari/537.36" version="28.0.6">
  <diagram name="P치gina-1" id="nDO6c9fMUiC2ZfDT-kFN">
    <mxGraphModel grid="1" page="1" gridSize="10" guides="1" tooltips="1" connect="1" arrows="1" fold="1" pageScale="1" pageWidth="827" pageHeight="1169" math="0" shadow="0">
      <root>
        <mxCell id="0" />
        <mxCell id="1" parent="0" />
        <mxCell id="2Eo_pxNqbHfpbORmE1ve-37" style="edgeStyle=orthogonalEdgeStyle;rounded=0;orthogonalLoop=1;jettySize=auto;html=1;exitX=1;exitY=0.5;exitDx=0;exitDy=0;entryX=-0.001;entryY=-0.004;entryDx=0;entryDy=0;entryPerimeter=0;strokeColor=light-dark(#FF9090,#FF9090);" edge="1" parent="1" source="2Eo_pxNqbHfpbORmE1ve-2" target="l4uEFXdNcrZqZRvmHCtl-8">
          <mxGeometry relative="1" as="geometry">
            <mxPoint x="289" y="290" as="targetPoint" />
            <Array as="points">
              <mxPoint x="280" y="290" />
            </Array>
          </mxGeometry>
        </mxCell>
        <mxCell id="l4uEFXdNcrZqZRvmHCtl-5" value="Solicitar Agendamiento&lt;br&gt;&amp;nbsp;Cita" style="edgeLabel;html=1;align=center;verticalAlign=middle;resizable=0;points=[];" connectable="0" vertex="1" parent="2Eo_pxNqbHfpbORmE1ve-37">
          <mxGeometry x="-0.2636" y="1" relative="1" as="geometry">
            <mxPoint x="18" y="1" as="offset" />
          </mxGeometry>
        </mxCell>
        <mxCell id="2Eo_pxNqbHfpbORmE1ve-2" value="" style="ellipse;fillColor=strokeColor;html=1;strokeColor=light-dark(#FF9090,#FF9090);" vertex="1" parent="1">
          <mxGeometry x="80" y="275" width="30" height="30" as="geometry" />
        </mxCell>
        <mxCell id="2Eo_pxNqbHfpbORmE1ve-12" style="rounded=0;orthogonalLoop=1;jettySize=auto;html=1;entryX=0;entryY=0.5;entryDx=0;entryDy=0;strokeColor=light-dark(#FF9090,#FF9090);" edge="1" parent="1" target="l4uEFXdNcrZqZRvmHCtl-15">
          <mxGeometry relative="1" as="geometry">
            <mxPoint x="460" y="285" as="sourcePoint" />
            <mxPoint x="610" y="285.02" as="targetPoint" />
          </mxGeometry>
        </mxCell>
        <mxCell id="2Eo_pxNqbHfpbORmE1ve-16" value="" style="ellipse;html=1;shape=endState;fillColor=strokeColor;strokeColor=light-dark(#FF9090,#FF9090);" vertex="1" parent="1">
          <mxGeometry x="1320" y="270" width="30" height="30" as="geometry" />
        </mxCell>
        <mxCell id="l4uEFXdNcrZqZRvmHCtl-6" value="Pendiente" style="swimlane;fontStyle=0;childLayout=stackLayout;horizontal=1;startSize=30;horizontalStack=0;resizeParent=1;resizeParentMax=0;resizeLast=0;collapsible=1;marginBottom=0;whiteSpace=wrap;html=1;" vertex="1" parent="1">
          <mxGeometry x="290" y="230" width="170" height="120" as="geometry" />
        </mxCell>
        <mxCell id="l4uEFXdNcrZqZRvmHCtl-7" value="entry/Asignar numero de cita" style="text;strokeColor=none;fillColor=none;align=left;verticalAlign=middle;spacingLeft=4;spacingRight=4;overflow=hidden;points=[[0,0.5],[1,0.5]];portConstraint=eastwest;rotatable=0;whiteSpace=wrap;html=1;" vertex="1" parent="l4uEFXdNcrZqZRvmHCtl-6">
          <mxGeometry y="30" width="170" height="30" as="geometry" />
        </mxCell>
        <mxCell id="l4uEFXdNcrZqZRvmHCtl-8" value="do/Esperar confirmaci칩n&amp;nbsp;" style="text;strokeColor=none;fillColor=none;align=left;verticalAlign=middle;spacingLeft=4;spacingRight=4;overflow=hidden;points=[[0,0.5],[1,0.5]];portConstraint=eastwest;rotatable=0;whiteSpace=wrap;html=1;" vertex="1" parent="l4uEFXdNcrZqZRvmHCtl-6">
          <mxGeometry y="60" width="170" height="30" as="geometry" />
        </mxCell>
        <mxCell id="l4uEFXdNcrZqZRvmHCtl-9" value="exit/Actualizar estado de BD" style="text;strokeColor=none;fillColor=none;align=left;verticalAlign=middle;spacingLeft=4;spacingRight=4;overflow=hidden;points=[[0,0.5],[1,0.5]];portConstraint=eastwest;rotatable=0;whiteSpace=wrap;html=1;" vertex="1" parent="l4uEFXdNcrZqZRvmHCtl-6">
          <mxGeometry y="90" width="170" height="30" as="geometry" />
        </mxCell>
        <mxCell id="l4uEFXdNcrZqZRvmHCtl-10" value="Confirmada" style="swimlane;fontStyle=0;childLayout=stackLayout;horizontal=1;startSize=30;horizontalStack=0;resizeParent=1;resizeParentMax=0;resizeLast=0;collapsible=1;marginBottom=0;whiteSpace=wrap;html=1;" vertex="1" parent="1">
          <mxGeometry x="765" y="110" width="170" height="90" as="geometry" />
        </mxCell>
        <mxCell id="l4uEFXdNcrZqZRvmHCtl-11" value="entry/Confirmar Cita" style="text;strokeColor=none;fillColor=none;align=left;verticalAlign=middle;spacingLeft=4;spacingRight=4;overflow=hidden;points=[[0,0.5],[1,0.5]];portConstraint=eastwest;rotatable=0;whiteSpace=wrap;html=1;" vertex="1" parent="l4uEFXdNcrZqZRvmHCtl-10">
          <mxGeometry y="30" width="170" height="30" as="geometry" />
        </mxCell>
        <mxCell id="l4uEFXdNcrZqZRvmHCtl-12" value="do/Guardar Cita&amp;nbsp;" style="text;strokeColor=none;fillColor=none;align=left;verticalAlign=middle;spacingLeft=4;spacingRight=4;overflow=hidden;points=[[0,0.5],[1,0.5]];portConstraint=eastwest;rotatable=0;whiteSpace=wrap;html=1;" vertex="1" parent="l4uEFXdNcrZqZRvmHCtl-10">
          <mxGeometry y="60" width="170" height="30" as="geometry" />
        </mxCell>
        <mxCell id="l4uEFXdNcrZqZRvmHCtl-15" value="" style="rhombus;whiteSpace=wrap;html=1;" vertex="1" parent="1">
          <mxGeometry x="560" y="250" width="65" height="70" as="geometry" />
        </mxCell>
        <mxCell id="l4uEFXdNcrZqZRvmHCtl-16" value="Cancelada" style="swimlane;fontStyle=0;childLayout=stackLayout;horizontal=1;startSize=30;horizontalStack=0;resizeParent=1;resizeParentMax=0;resizeLast=0;collapsible=1;marginBottom=0;whiteSpace=wrap;html=1;" vertex="1" parent="1">
          <mxGeometry x="752.5" y="350" width="195" height="90" as="geometry" />
        </mxCell>
        <mxCell id="l4uEFXdNcrZqZRvmHCtl-17" value="entry/Liberar horario" style="text;strokeColor=none;fillColor=none;align=left;verticalAlign=middle;spacingLeft=4;spacingRight=4;overflow=hidden;points=[[0,0.5],[1,0.5]];portConstraint=eastwest;rotatable=0;whiteSpace=wrap;html=1;" vertex="1" parent="l4uEFXdNcrZqZRvmHCtl-16">
          <mxGeometry y="30" width="195" height="30" as="geometry" />
        </mxCell>
        <mxCell id="l4uEFXdNcrZqZRvmHCtl-18" value="do/Enviar notificaci칩n cancelaci칩n" style="text;strokeColor=none;fillColor=none;align=left;verticalAlign=middle;spacingLeft=4;spacingRight=4;overflow=hidden;points=[[0,0.5],[1,0.5]];portConstraint=eastwest;rotatable=0;whiteSpace=wrap;html=1;" vertex="1" parent="l4uEFXdNcrZqZRvmHCtl-16">
          <mxGeometry y="60" width="195" height="30" as="geometry" />
        </mxCell>
        <mxCell id="l4uEFXdNcrZqZRvmHCtl-20" style="rounded=0;orthogonalLoop=1;jettySize=auto;html=1;entryX=0;entryY=0.5;entryDx=0;entryDy=0;exitX=1;exitY=0.5;exitDx=0;exitDy=0;strokeColor=light-dark(#FF9090,#FF9090);" edge="1" parent="1" source="l4uEFXdNcrZqZRvmHCtl-15" target="l4uEFXdNcrZqZRvmHCtl-11">
          <mxGeometry relative="1" as="geometry">
            <mxPoint x="640" y="270" as="sourcePoint" />
            <mxPoint x="795" y="270" as="targetPoint" />
          </mxGeometry>
        </mxCell>
        <mxCell id="l4uEFXdNcrZqZRvmHCtl-21" value="&lt;font style=&quot;vertical-align: inherit;&quot;&gt;&lt;font style=&quot;vertical-align: inherit;&quot;&gt;&amp;nbsp;Administrador Confirma Cita&lt;/font&gt;&lt;/font&gt;" style="edgeLabel;html=1;align=center;verticalAlign=middle;resizable=0;points=[];" connectable="0" vertex="1" parent="l4uEFXdNcrZqZRvmHCtl-20">
          <mxGeometry x="-0.1066" y="-2" relative="1" as="geometry">
            <mxPoint x="1" as="offset" />
          </mxGeometry>
        </mxCell>
        <mxCell id="l4uEFXdNcrZqZRvmHCtl-22" style="rounded=0;orthogonalLoop=1;jettySize=auto;html=1;entryX=0;entryY=0.5;entryDx=0;entryDy=0;exitX=1;exitY=0.5;exitDx=0;exitDy=0;strokeColor=light-dark(#FF9090,#FF9090);" edge="1" parent="1" source="l4uEFXdNcrZqZRvmHCtl-15" target="l4uEFXdNcrZqZRvmHCtl-17">
          <mxGeometry relative="1" as="geometry">
            <mxPoint x="650" y="380" as="sourcePoint" />
            <mxPoint x="790" y="250" as="targetPoint" />
          </mxGeometry>
        </mxCell>
        <mxCell id="l4uEFXdNcrZqZRvmHCtl-23" value="&lt;font style=&quot;vertical-align: inherit;&quot;&gt;&lt;font style=&quot;vertical-align: inherit;&quot;&gt;Administrador Cancela Cita&lt;/font&gt;&lt;/font&gt;" style="edgeLabel;html=1;align=center;verticalAlign=middle;resizable=0;points=[];" connectable="0" vertex="1" parent="l4uEFXdNcrZqZRvmHCtl-22">
          <mxGeometry x="-0.1066" y="-2" relative="1" as="geometry">
            <mxPoint x="1" as="offset" />
          </mxGeometry>
        </mxCell>
        <mxCell id="l4uEFXdNcrZqZRvmHCtl-24" value="Realizada" style="swimlane;fontStyle=0;childLayout=stackLayout;horizontal=1;startSize=30;horizontalStack=0;resizeParent=1;resizeParentMax=0;resizeLast=0;collapsible=1;marginBottom=0;whiteSpace=wrap;html=1;" vertex="1" parent="1">
          <mxGeometry x="1060" y="110" width="170" height="90" as="geometry" />
        </mxCell>
        <mxCell id="l4uEFXdNcrZqZRvmHCtl-25" value="entry/Registrar Fecha/Hora" style="text;strokeColor=none;fillColor=none;align=left;verticalAlign=middle;spacingLeft=4;spacingRight=4;overflow=hidden;points=[[0,0.5],[1,0.5]];portConstraint=eastwest;rotatable=0;whiteSpace=wrap;html=1;" vertex="1" parent="l4uEFXdNcrZqZRvmHCtl-24">
          <mxGeometry y="30" width="170" height="30" as="geometry" />
        </mxCell>
        <mxCell id="l4uEFXdNcrZqZRvmHCtl-26" value="do/Recordatorios" style="text;strokeColor=none;fillColor=none;align=left;verticalAlign=middle;spacingLeft=4;spacingRight=4;overflow=hidden;points=[[0,0.5],[1,0.5]];portConstraint=eastwest;rotatable=0;whiteSpace=wrap;html=1;" vertex="1" parent="l4uEFXdNcrZqZRvmHCtl-24">
          <mxGeometry y="60" width="170" height="30" as="geometry" />
        </mxCell>
        <mxCell id="l4uEFXdNcrZqZRvmHCtl-28" style="rounded=0;orthogonalLoop=1;jettySize=auto;html=1;entryX=0;entryY=0.5;entryDx=0;entryDy=0;exitX=1;exitY=0.5;exitDx=0;exitDy=0;strokeColor=light-dark(#FF9090,#FF9090);" edge="1" parent="1" source="l4uEFXdNcrZqZRvmHCtl-11" target="l4uEFXdNcrZqZRvmHCtl-25">
          <mxGeometry relative="1" as="geometry">
            <mxPoint x="730" y="310" as="sourcePoint" />
            <mxPoint x="870" y="180" as="targetPoint" />
          </mxGeometry>
        </mxCell>
        <mxCell id="l4uEFXdNcrZqZRvmHCtl-29" value="Realizar Cita" style="edgeLabel;html=1;align=center;verticalAlign=middle;resizable=0;points=[];" connectable="0" vertex="1" parent="l4uEFXdNcrZqZRvmHCtl-28">
          <mxGeometry x="-0.1066" y="-2" relative="1" as="geometry">
            <mxPoint x="1" as="offset" />
          </mxGeometry>
        </mxCell>
        <mxCell id="l4uEFXdNcrZqZRvmHCtl-30" style="rounded=0;orthogonalLoop=1;jettySize=auto;html=1;entryX=0;entryY=0.5;entryDx=0;entryDy=0;exitX=1;exitY=0.5;exitDx=0;exitDy=0;strokeColor=light-dark(#FF9090,#FF9090);" edge="1" parent="1" source="l4uEFXdNcrZqZRvmHCtl-25" target="2Eo_pxNqbHfpbORmE1ve-16">
          <mxGeometry relative="1" as="geometry">
            <mxPoint x="1030" y="150" as="sourcePoint" />
            <mxPoint x="1154" y="151" as="targetPoint" />
          </mxGeometry>
        </mxCell>
        <mxCell id="l4uEFXdNcrZqZRvmHCtl-32" style="rounded=0;orthogonalLoop=1;jettySize=auto;html=1;entryX=0;entryY=0.5;entryDx=0;entryDy=0;exitX=1;exitY=0.5;exitDx=0;exitDy=0;strokeColor=light-dark(#FF9090,#FF9090);" edge="1" parent="1" source="l4uEFXdNcrZqZRvmHCtl-17" target="2Eo_pxNqbHfpbORmE1ve-16">
          <mxGeometry relative="1" as="geometry">
            <mxPoint x="1260" y="170" as="sourcePoint" />
            <mxPoint x="1400" y="315" as="targetPoint" />
          </mxGeometry>
        </mxCell>
      </root>
    </mxGraphModel>
  </diagram>
</mxfile>
